<svg width="40" height="40" viewBox="0 0 40 40" fill="none" xmlns="http://www.w3.org/2000/svg">
<g clip-path="url(#clip0)">
<path d="M20.0005 0C8.9552 0 0.000976562 8.95449 0.000976562 19.9998C0.000976562 31.0448 8.9552 40 20.0005 40C31.0458 40 40.0007 31.0448 40.0007 19.9998C40.0007 8.95422 31.0458 0 20.0005 0ZM20.0614 29.4354V29.4351H19.9393H11.3963C11.3963 23.1876 16.8833 23.189 18.1009 21.5554L18.2402 20.8105C16.5295 19.9435 15.3219 17.8534 15.3219 15.4088C15.3219 12.1883 17.4169 9.57703 20.0005 9.57703C22.5841 9.57703 24.6791 12.1883 24.6791 15.4088C24.6791 17.8326 23.4929 19.9097 21.8051 20.7903L21.9637 21.6369C23.2996 23.1913 28.6041 23.2926 28.6041 29.4354H20.0614V29.4354Z" fill="#333333"/>
</g>
<defs>
<clipPath id="clip0">
<rect width="40" height="40" fill="white"/>
</clipPath>
</defs>
</svg>
